<svg role="img" xmlns="http://www.w3.org/2000/svg" viewBox="0 0 24 24">
  <title>Instagram icon</title>
  <path d="M12 2.72c3.2 0 3.58.01 4.84.07 1.38.07 2.38.31 2.95.53.77.31 1.31.69 1.69 1.13.44.52.75 1.21.86 2.29.06 1.26.08 1.62.12 2.63.05 1.41.07 1.7.18 2.06.24.85.65 1.47 1.18 1.99.53.52 1.15.94 2.01 1.18.36.11.65.13 2.06.18 1.01.04 1.37.06 2.63.12 1.08.1 1.77.41 2.29.86.43.42.82.92 1.13 1.69.22.57.46 1.57.53 2.95.07 1.26.07 1.64.07 4.84s0 3.58-.07 4.84c-.07 1.38-.31 2.38-.53 2.95-.31.77-.69 1.31-1.13 1.69-.52.44-1.21.75-2.29.86-1.26.06-1.62.08-2.63.12-1.41.05-1.7.07-2.06.18-.85.24-1.47.65-1.99 1.18-.52.53-.94 1.15-1.18 2.01-.11.36-.13.65-.18 2.06-.04 1.01-.06 1.37-.12 2.63-.1 1.08-.41 1.77-.86 2.29-.42.43-.92.82-1.69 1.13-.57.22-1.57.46-2.95.53-1.26.07-1.64.07-4.84.07s-3.58 0-4.84-.07c-1.38-.07-2.38-.31-2.95-.53-.77-.31-1.31-.69-1.69-1.13-.44-.52-.75-1.21-.86-2.29-.06-1.26-.08-1.62-.12-2.63-.05-1.01-.07-1.37-.18-2.06-.24-.85-.65-1.47-1.18-1.99-.53-.52-1.15-.94-1.99-1.18-.36-.11-.65-.13-2.06-.18-1.01-.04-1.37-.06-2.63-.12-1.08-.1-1.77-.41-2.29-.86-.43-.42-.82-.92-1.13-1.69-.22-.57-.46-1.57-.53-2.95-.07-1.26-.07-1.64-.07-4.84s0-3.58.07-4.84c.07-1.38.31-2.38.53-2.95.31-.77.69-1.31 1.13-1.69.52-.44 1.21-.75 2.29-.86 1.26-.06 1.62-.08 2.63-.12 1.01-.05 1.37-.07 2.06-.18.85-.24 1.47-.65 1.99-1.18.52-.53.94-1.15 1.18-2.01.11-.36.13-.65.18-2.06.04-1.01.06-1.37.12-2.63.1-1.08.41-1.77.86-2.29.42-.43.92-.82 1.69-1.13.57-.22 1.57-.46 2.95-.53 1.26-.07 1.64-.07 4.84-.07zm0 5.28c-2.85 0-5.16 2.31-5.16 5.16 0 2.85 2.31 5.16 5.16 5.16 2.85 0 5.16-2.31 5.16-5.16 0-2.85-2.31-5.16-5.16-5.16zm0 8.28c-1.72 0-3.12-1.4-3.12-3.12 0-1.72 1.4-3.12 3.12-3.12 1.72 0 3.12 1.4 3.12 3.12 0 1.72-1.4 3.12-3.12 3.12zm5.91-9.45c0 .96-.78 1.74-1.74 1.74s-1.74-.78-1.74-1.74.78-1.74 1.74-1.74 1.74.78 1.74 1.74zm0 0"/></svg>
